<?xml version="1.0" standalone="no"?>
<!DOCTYPE svg PUBLIC "-//W3C//DTD SVG 20010904//EN"
 "http://www.w3.org/TR/2001/REC-SVG-20010904/DTD/svg10.dtd">
<svg version="1.0" xmlns="http://www.w3.org/2000/svg"
 width="779.000000pt" height="779.000000pt" viewBox="0 0 779.000000 779.000000"
 preserveAspectRatio="xMidYMid meet">

<g transform="translate(0.000000,779.000000) scale(0.100000,-0.100000)"
fill="#000000" stroke="none">
<path d="M3425 5180 l-470 -470 -402 402 -403 403 -893 -893 -892 -892 892
-892 893 -893 472 472 473 472 404 -401 404 -400 401 401 401 401 472 -472
473 -473 893 893 892 892 -892 892 -893 893 -403 -403 -402 -402 -470 470
c-258 259 -472 470 -475 470 -3 0 -217 -211 -475 -470z m895 -165 l415 -415
-418 -418 -417 -417 -417 417 -418 418 415 415 c228 228 417 415 420 415 3 0
192 -187 420 -415z m-1821 -69 l345 -345 -363 -367 -363 -367 434 -434 433
-433 -418 -418 -417 -417 -782 783 -783 782 780 780 c429 429 782 780 785 780
3 0 160 -155 349 -344z m3936 -436 l780 -780 -783 -782 -782 -783 -417 417
-418 418 435 435 435 435 -365 365 -365 365 345 345 c190 190 347 345 350 345
3 0 356 -351 785 -780z m-3030 -1090 l-310 -310 -380 380 -380 380 310 310
310 310 380 -380 380 -380 -310 -310z m1680 70 l-380 -380 -310 310 -310 310
380 380 380 380 310 -310 310 -310 -380 -380z m-835 -145 l345 -345 -348 -348
-347 -347 -347 347 -348 348 345 345 c190 190 347 345 350 345 3 0 160 -155
350 -345z"/>
</g>
</svg>
