<?xml version="1.0" standalone="no"?>
<!DOCTYPE svg PUBLIC "-//W3C//DTD SVG 20010904//EN"
 "http://www.w3.org/TR/2001/REC-SVG-20010904/DTD/svg10.dtd">
<svg version="1.0" xmlns="http://www.w3.org/2000/svg"
 width="2521.000000pt" height="523.000000pt" viewBox="0 0 2521.000000 523.000000"
 preserveAspectRatio="xMidYMid meet">

<g transform="translate(0.000000,523.000000) scale(0.100000,-0.100000)"
fill="#000000" stroke="none">
<path d="M15792 5205 c-214 -47 -390 -216 -438 -422 -21 -87 -14 -224 16 -308
89 -257 375 -414 688 -377 170 20 287 76 391 188 103 110 151 232 151 389 0
155 -44 259 -155 370 -123 123 -267 176 -474 174 -64 0 -144 -7 -179 -14z"/>
<path d="M13630 4965 c-52 -7 -133 -22 -181 -33 -464 -111 -788 -450 -884
-925 -31 -157 -35 -368 -35 -2144 l0 -1783 510 0 510 0 0 1330 0 1330 435 0
435 0 0 390 0 390 -451 0 -452 0 6 148 c9 210 45 320 131 400 88 81 180 112
334 112 150 0 295 -38 381 -100 27 -19 29 -19 36 -2 33 84 255 702 255 710 0
27 -179 106 -321 141 -198 49 -499 65 -709 36z"/>
<path d="M17430 2505 l0 -2425 510 0 510 0 0 448 0 447 243 243 c133 133 245
242 247 242 3 0 255 -310 560 -689 l555 -690 613 0 c488 -1 612 2 606 12 -5 6
-339 433 -744 947 -405 514 -759 965 -788 1002 l-52 66 636 649 c350 356 678
690 728 741 l91 92 -605 0 -605 -1 -737 -699 c-406 -385 -740 -700 -743 -700
-3 0 -5 617 -5 1370 l0 1370 -510 0 -510 0 0 -2425z"/>
<path d="M2260 4723 c-236 -18 -525 -83 -747 -169 -572 -220 -1014 -619 -1267
-1145 -105 -218 -173 -439 -213 -699 -25 -163 -25 -604 0 -775 79 -530 274
-933 622 -1280 325 -326 726 -525 1240 -616 151 -27 544 -38 717 -20 327 34
623 131 855 280 44 28 83 51 86 51 4 0 7 -61 7 -135 l0 -135 395 0 395 0 0
1180 0 1180 -480 0 -480 0 0 -621 c0 -580 -1 -623 -17 -636 -176 -139 -393
-235 -636 -279 -130 -25 -429 -25 -552 -1 -508 100 -871 410 -1029 881 -104
310 -108 747 -10 1058 118 374 354 657 689 828 366 186 856 220 1261 85 190
-63 389 -181 562 -335 91 -81 105 -90 120 -78 45 35 652 600 652 607 0 12
-210 214 -285 273 -338 269 -785 440 -1285 493 -121 13 -471 18 -600 8z"/>
<path d="M7290 3643 c-219 -13 -474 -79 -651 -168 -127 -65 -283 -190 -359
-289 -19 -25 -38 -45 -42 -46 -5 0 -8 101 -8 225 l0 225 -485 0 -485 0 0
-1755 0 -1755 510 0 510 0 0 898 c0 972 1 999 55 1172 94 302 316 491 652 556
90 17 358 23 422 9 l31 -7 0 471 0 471 -47 -2 c-27 -1 -73 -3 -103 -5z"/>
<path d="M9326 3639 c-526 -47 -987 -314 -1263 -731 -174 -264 -267 -553 -294
-910 -28 -386 38 -745 197 -1062 296 -589 917 -933 1629 -902 402 17 697 132
935 363 47 46 86 83 88 83 1 0 2 -90 2 -200 l0 -200 485 0 485 0 0 1755 0
1755 -505 0 -505 0 0 -180 c0 -99 -3 -180 -6 -180 -4 0 -37 29 -74 63 -289
273 -683 389 -1174 346z m575 -844 c164 -34 291 -105 420 -234 140 -140 207
-268 250 -473 18 -89 20 -127 16 -283 -3 -152 -8 -195 -30 -277 -68 -256 -236
-466 -462 -578 -238 -117 -573 -117 -810 2 -261 131 -434 379 -481 688 -92
612 228 1101 766 1170 83 11 245 4 331 -15z"/>
<path d="M23075 3640 c-793 -70 -1400 -514 -1634 -1194 -125 -363 -129 -821
-10 -1189 40 -126 155 -353 233 -461 293 -406 727 -659 1276 -742 161 -25 511
-25 670 -1 316 49 581 149 830 315 227 150 451 404 574 651 152 303 215 676
175 1039 -92 841 -732 1462 -1619 1572 -123 15 -379 20 -495 10z m436 -851
c301 -71 539 -312 626 -635 26 -93 27 -112 27 -314 0 -203 -1 -221 -27 -315
-121 -447 -505 -708 -967 -657 -232 26 -402 110 -556 275 -122 130 -200 300
-230 497 -92 612 228 1101 766 1170 93 12 264 2 361 -21z"/>
<path d="M15460 1835 l0 -1755 510 0 510 0 0 1755 0 1755 -510 0 -510 0 0
-1755z"/>
</g>
</svg>
